<svg width="395" height="395" viewBox="0 0 395 395" fill="none" xmlns="http://www.w3.org/2000/svg">
<g clip-path="url(#clip0_718_4332)">
<rect width="395" height="395" fill="#F77951"/>
<circle opacity="0.2" cx="197.5" cy="197.5" r="76.5" fill="url(#paint0_linear_718_4332)"/>
<circle opacity="0.2" cx="197.5" cy="201.5" r="119.5" fill="url(#paint1_linear_718_4332)"/>
<circle opacity="0.2" cx="197.5" cy="201.5" r="162.5" fill="url(#paint2_linear_718_4332)"/>
<circle opacity="0.2" cx="197.5" cy="201.5" r="207.5" fill="url(#paint3_linear_718_4332)"/>
<circle opacity="0.2" cx="198.5" cy="197.5" r="252.5" fill="url(#paint4_linear_718_4332)"/>
<circle opacity="0.2" cx="198.5" cy="197.5" r="298.5" fill="url(#paint5_linear_718_4332)"/>
<circle opacity="0.2" cx="198.5" cy="197.5" r="337.5" fill="url(#paint6_linear_718_4332)"/>
<g clip-path="url(#clip1_718_4332)">
<path d="M198 174C203.52 174 208 178.46 208 184C208 189.52 203.52 194 198 194C192.46 194 188 189.52 188 184C188 178.46 192.46 174 198 174ZM197.998 170C190.258 170 183.998 176.26 183.998 184C183.998 191.72 190.258 198 197.998 198C205.718 198 211.998 191.72 211.998 184C211.998 176.26 205.718 170 197.998 170Z" fill="white"/>
<path d="M218 226H214V216C214 210.46 209.52 206 204 206H192C186.46 206 182 210.46 182 216V226H178V216C178 208.26 184.26 202 192 202H204C211.72 202 218 208.26 218 216V226Z" fill="white"/>
</g>
</g>
<defs>
<linearGradient id="paint0_linear_718_4332" x1="197.5" y1="121" x2="197.5" y2="274" gradientUnits="userSpaceOnUse">
<stop stop-color="white"/>
<stop offset="1" stop-color="white" stop-opacity="0"/>
</linearGradient>
<linearGradient id="paint1_linear_718_4332" x1="197.5" y1="82" x2="197.5" y2="321" gradientUnits="userSpaceOnUse">
<stop stop-color="white"/>
<stop offset="1" stop-color="white" stop-opacity="0"/>
</linearGradient>
<linearGradient id="paint2_linear_718_4332" x1="197.5" y1="39" x2="197.5" y2="364" gradientUnits="userSpaceOnUse">
<stop stop-color="white"/>
<stop offset="1" stop-color="white" stop-opacity="0"/>
</linearGradient>
<linearGradient id="paint3_linear_718_4332" x1="197.5" y1="-6" x2="197.5" y2="409" gradientUnits="userSpaceOnUse">
<stop stop-color="white"/>
<stop offset="1" stop-color="white" stop-opacity="0"/>
</linearGradient>
<linearGradient id="paint4_linear_718_4332" x1="198.5" y1="-55" x2="198.5" y2="450" gradientUnits="userSpaceOnUse">
<stop stop-color="white"/>
<stop offset="1" stop-color="white" stop-opacity="0"/>
</linearGradient>
<linearGradient id="paint5_linear_718_4332" x1="198.5" y1="-101" x2="198.5" y2="496" gradientUnits="userSpaceOnUse">
<stop stop-color="white"/>
<stop offset="1" stop-color="white" stop-opacity="0"/>
</linearGradient>
<linearGradient id="paint6_linear_718_4332" x1="198.5" y1="-140" x2="198.5" y2="535" gradientUnits="userSpaceOnUse">
<stop stop-color="white"/>
<stop offset="1" stop-color="white" stop-opacity="0"/>
</linearGradient>
<clipPath id="clip0_718_4332">
<rect width="395" height="395" fill="white"/>
</clipPath>
<clipPath id="clip1_718_4332">
<rect width="64" height="64" fill="white" transform="translate(166 166)"/>
</clipPath>
</defs>
</svg>
