<svg width="32" height="32" viewBox="0 0 32 32" fill="none" xmlns="http://www.w3.org/2000/svg">
<g clip-path="url(#clip0_709_1697)">
<path d="M24 13H22C21.99 11.34 20.65 10 19 10V8C21.76 8 23.99 10.23 24 13Z" fill="#00693e"/>
<path d="M28 13H26C25.99 9.13 22.86 6 19 6V4C23.96 4 27.99 8.03 28 13Z" fill="#00693e"/>
<path d="M26 29.0001H25.83C6.17999 27.8701 3.38999 11.2901 2.99999 6.23013C2.86999 4.57013 4.09999 3.13013 5.75999 3.00013C5.75999 2.99013 5.75999 2.99013 5.75999 2.99013C5.83333 2.98346 5.90999 2.98013 5.98999 2.98013H11.26C12.07 2.97013 12.81 3.47013 13.12 4.24013L14.64 7.98013C14.93 8.72013 14.76 9.57013 14.2 10.1401L12.07 12.2901L12.069 12.2891C12.739 16.1591 15.769 19.1991 19.649 19.8891L21.819 17.7391C22.389 17.1791 23.239 17.0091 23.989 17.3291L27.759 18.8391C28.499 19.1491 28.989 19.8791 28.989 20.6991V25.9791C28.989 27.6291 27.639 28.9791 25.989 28.9791L26 29.0001ZM5.99999 5.00013C5.43999 4.99013 4.98999 5.44013 4.98999 5.99013C4.97999 5.99013 4.97999 5.99013 4.97999 5.99013C4.97999 6.01679 4.97999 6.04346 4.97999 6.07013C5.43999 11.9901 8.38999 25.9901 25.92 26.9901C26.47 27.0201 26.94 26.6001 26.97 26.0501C26.97 26.0401 26.97 26.0401 26.97 26.0401C26.97 26.0135 26.97 25.9901 26.97 25.9701V20.6901L23.2 19.1801L20.33 22.0301L19.85 21.9701C11.15 20.8801 9.96999 12.1801 9.96999 12.0901L9.90999 11.6101L12.75 8.74013L11.25 4.97013L5.99999 5.00013Z" fill="#00693e"/>
</g>
<defs>
<clipPath id="clip0_709_1697">
<rect width="32" height="32" fill="white"/>
</clipPath>
</defs>
</svg>
